<svg width="323" height="65" viewBox="0 0 323 65" fill="none" xmlns="http://www.w3.org/2000/svg">
<path d="M15 17.1857L41.9072 2M15 17.1857L20.1252 20.1201M15 17.1857V22.5907M41.9072 2L68 16.6709M41.9072 2V63M68 16.6709V22.5907M68 16.6709L67.2768 17.443L62.6889 20.1201M68 47.557L41.9072 63M68 47.557L62.6889 44.7257M68 47.557V41.8945M41.9072 63L15 47.557M15 47.557L20.1252 44.7257M15 47.557V41.8945M20.1252 20.1201L37.807 9.9789V30.2438M20.1252 20.1201L37.807 30.2438M37.807 30.2438L41.9072 32.5914L46.0073 35.0993M46.0073 30.1173L45.7511 9.9789L62.6889 20.1201M62.6889 20.1201L37.807 35.0993M46.0073 35.0993V54.7637L62.6889 44.7257M46.0073 35.0993L62.6889 44.7257M37.807 35.0993L20.1252 44.7257M37.807 35.0993V44.4684V54.8193L20.1252 44.7257M68 22.5907V41.8945M68 22.5907L62.6889 25.6041M68 41.8945L62.6889 39.0723M15 22.5907V41.8945M15 22.5907L20.1252 25.6041M15 41.8945L20.1252 39.0723M20.1252 39.0723L32.4256 32.3713L20.1252 25.6041M20.1252 39.0723V25.6041M62.6889 39.0723L50.62 32.3713L62.6889 25.6041M62.6889 39.0723V25.6041" stroke="black" stroke-width="2"/>
<path d="M88.8078 46C87.4478 46 86.1411 45.8 84.8878 45.4C83.6345 45 82.3545 44.3333 81.0478 43.4L83.1278 41.28C84.1411 41.9467 85.1278 42.4133 86.0878 42.68C87.0745 42.9467 88.0478 43.08 89.0078 43.08C89.7545 43.08 90.5145 42.9467 91.2878 42.68C92.0611 42.3867 92.7545 41.9867 93.3678 41.48C93.9811 40.9467 94.4878 40.3067 94.8878 39.56C95.2878 38.7867 95.4878 37.92 95.4878 36.96C95.4878 35.7867 95.1278 34.9067 94.4078 34.32C93.6878 33.7067 92.7811 33.2267 91.6878 32.88C90.5945 32.5067 89.4078 32.1733 88.1278 31.88C86.8745 31.5867 85.7011 31.16 84.6078 30.6C83.5145 30.0133 82.6078 29.2133 81.8878 28.2C81.1678 27.16 80.8078 25.7467 80.8078 23.96C80.8078 22.5733 81.0878 21.3867 81.6478 20.4C82.2345 19.3867 82.9811 18.56 83.8878 17.92C84.7945 17.2533 85.8211 16.76 86.9678 16.44C88.1145 16.12 89.2745 15.96 90.4478 15.96C91.7545 15.96 93.0345 16.16 94.2878 16.56C95.5678 16.9333 96.8745 17.5867 98.2078 18.52L96.0878 20.64C95.1278 19.9733 94.1545 19.52 93.1678 19.28C92.2078 19.0133 91.2345 18.88 90.2478 18.88C89.4745 18.88 88.7011 18.9733 87.9278 19.16C87.1811 19.32 86.4878 19.6 85.8478 20C85.2345 20.3733 84.7278 20.8933 84.3278 21.56C83.9545 22.2 83.7678 23 83.7678 23.96C83.7678 25.1333 84.1278 26.04 84.8478 26.68C85.5678 27.2933 86.4745 27.8 87.5678 28.2C88.6611 28.6 89.8345 28.96 91.0878 29.28C92.3678 29.6 93.5545 30.0533 94.6478 30.64C95.7411 31.2 96.6478 31.9733 97.3678 32.96C98.0878 33.92 98.4478 35.2533 98.4478 36.96C98.4478 38.4 98.2078 39.68 97.7278 40.8C97.2478 41.92 96.5811 42.8667 95.7278 43.64C94.8745 44.4133 93.8478 45 92.6478 45.4C91.4745 45.8 90.1945 46 88.8078 46ZM105.41 29.56H122.05V32.48H105.41V29.56ZM105.41 15.96H124.77V18.88H105.41V15.96ZM105.41 43.08H124.77V46H105.41V43.08ZM156.705 24.12C156.705 25.1067 156.599 25.9867 156.385 26.76C156.172 27.5067 155.892 28.1733 155.545 28.76C155.199 29.32 154.799 29.8133 154.345 30.24C153.892 30.64 153.439 30.9733 152.985 31.24C151.919 31.9067 150.692 32.32 149.305 32.48L156.585 46H153.225L145.985 32.48H133.105V29.56H148.785C149.212 29.56 149.705 29.4667 150.265 29.28C150.852 29.0667 151.399 28.7467 151.905 28.32C152.439 27.8933 152.879 27.3333 153.225 26.64C153.599 25.9467 153.785 25.12 153.785 24.16C153.785 23.1733 153.625 22.3467 153.305 21.68C152.985 21.0133 152.585 20.48 152.105 20.08C151.625 19.6533 151.092 19.3467 150.505 19.16C149.919 18.9733 149.345 18.88 148.785 18.88H133.105V15.96H149.305C150.692 16.0133 151.919 16.3333 152.985 16.92C153.439 17.16 153.892 17.48 154.345 17.88C154.799 18.28 155.199 18.7733 155.545 19.36C155.892 19.92 156.172 20.6 156.385 21.4C156.599 22.1733 156.705 23.08 156.705 24.12ZM189.959 15.96L175.479 46.04L161.039 15.96H164.279L175.479 38.84L186.719 15.96H189.959ZM195.137 15.96H198.097V46H195.137V15.96Z" fill="#E7C400"/>
<path d="M208.266 46V15.96H221.946V18.88H211.226V46H208.266ZM228.105 29.56H244.745V32.48H228.105V29.56ZM228.105 15.96H247.465V18.88H228.105V15.96ZM228.105 43.08H247.465V46H228.105V43.08ZM268.081 46C263.974 46 260.427 44.5467 257.441 41.64C254.534 38.6533 253.081 35.1067 253.081 31C253.081 26.8667 254.534 23.3067 257.441 20.32C260.427 17.4133 263.974 15.96 268.081 15.96C271.841 15.96 275.147 17.2 278.001 19.68C277.867 19.8133 277.681 20 277.441 20.24C277.201 20.48 276.974 20.72 276.761 20.96C276.547 21.2 276.347 21.4133 276.161 21.6C276.001 21.76 275.921 21.84 275.921 21.84C274.801 20.9067 273.587 20.1867 272.281 19.68C271.001 19.1467 269.601 18.88 268.081 18.88C266.401 18.88 264.867 19.1867 263.481 19.8C262.094 20.3867 260.801 21.28 259.601 22.48C257.227 24.9067 256.041 27.7467 256.041 31C256.041 34.2267 257.227 37.0533 259.601 39.48C262.054 41.88 264.881 43.08 268.081 43.08C270.907 43.08 273.401 42.16 275.561 40.32C276.014 40.72 276.414 41.08 276.761 41.4C277.054 41.6933 277.321 41.96 277.561 42.2C277.801 42.4133 277.921 42.5067 277.921 42.48C275.041 44.8267 271.761 46 268.081 46ZM304.874 46V32.48H289.034V46H286.074V29.56H304.874V15.96H307.834V46H304.874Z" fill="black"/>
</svg>
