<svg width="321" height="65" viewBox="0 0 321 65" fill="none" xmlns="http://www.w3.org/2000/svg">
<path d="M14 17.1857L40.9072 2M14 17.1857L19.1252 20.1201M14 17.1857V22.5907M40.9072 2L67 16.6709M40.9072 2V63M67 16.6709V22.5907M67 16.6709L66.2768 17.443L61.6889 20.1201M67 47.557L40.9072 63M67 47.557L61.6889 44.7257M67 47.557V41.8945M40.9072 63L14 47.557M14 47.557L19.1252 44.7257M14 47.557V41.8945M19.1252 20.1201L36.807 9.9789V30.2438M19.1252 20.1201L36.807 30.2438M36.807 30.2438L40.9072 32.5914L45.0073 35.0993M45.0073 30.1173L44.7511 9.9789L61.6889 20.1201M61.6889 20.1201L36.807 35.0993M45.0073 35.0993V54.7637L61.6889 44.7257M45.0073 35.0993L61.6889 44.7257M36.807 35.0993L19.1252 44.7257M36.807 35.0993V44.4684V54.8193L19.1252 44.7257M67 22.5907V41.8945M67 22.5907L61.6889 25.6041M67 41.8945L61.6889 39.0723M14 22.5907V41.8945M14 22.5907L19.1252 25.6041M14 41.8945L19.1252 39.0723M19.1252 39.0723L31.4256 32.3713L19.1252 25.6041M19.1252 39.0723V25.6041M61.6889 39.0723L49.62 32.3713L61.6889 25.6041M61.6889 39.0723V25.6041" stroke="white" stroke-width="2"/>
<path d="M87.8078 46C86.4478 46 85.1411 45.8 83.8878 45.4C82.6345 45 81.3545 44.3333 80.0478 43.4L82.1278 41.28C83.1411 41.9467 84.1278 42.4133 85.0878 42.68C86.0745 42.9467 87.0478 43.08 88.0078 43.08C88.7545 43.08 89.5145 42.9467 90.2878 42.68C91.0611 42.3867 91.7545 41.9867 92.3678 41.48C92.9811 40.9467 93.4878 40.3067 93.8878 39.56C94.2878 38.7867 94.4878 37.92 94.4878 36.96C94.4878 35.7867 94.1278 34.9067 93.4078 34.32C92.6878 33.7067 91.7811 33.2267 90.6878 32.88C89.5945 32.5067 88.4078 32.1733 87.1278 31.88C85.8745 31.5867 84.7011 31.16 83.6078 30.6C82.5145 30.0133 81.6078 29.2133 80.8878 28.2C80.1678 27.16 79.8078 25.7467 79.8078 23.96C79.8078 22.5733 80.0878 21.3867 80.6478 20.4C81.2345 19.3867 81.9811 18.56 82.8878 17.92C83.7945 17.2533 84.8211 16.76 85.9678 16.44C87.1145 16.12 88.2745 15.96 89.4478 15.96C90.7545 15.96 92.0345 16.16 93.2878 16.56C94.5678 16.9333 95.8745 17.5867 97.2078 18.52L95.0878 20.64C94.1278 19.9733 93.1545 19.52 92.1678 19.28C91.2078 19.0133 90.2345 18.88 89.2478 18.88C88.4745 18.88 87.7011 18.9733 86.9278 19.16C86.1811 19.32 85.4878 19.6 84.8478 20C84.2345 20.3733 83.7278 20.8933 83.3278 21.56C82.9545 22.2 82.7678 23 82.7678 23.96C82.7678 25.1333 83.1278 26.04 83.8478 26.68C84.5678 27.2933 85.4745 27.8 86.5678 28.2C87.6611 28.6 88.8345 28.96 90.0878 29.28C91.3678 29.6 92.5545 30.0533 93.6478 30.64C94.7411 31.2 95.6478 31.9733 96.3678 32.96C97.0878 33.92 97.4478 35.2533 97.4478 36.96C97.4478 38.4 97.2078 39.68 96.7278 40.8C96.2478 41.92 95.5811 42.8667 94.7278 43.64C93.8745 44.4133 92.8478 45 91.6478 45.4C90.4745 45.8 89.1945 46 87.8078 46ZM104.41 29.56H121.05V32.48H104.41V29.56ZM104.41 15.96H123.77V18.88H104.41V15.96ZM104.41 43.08H123.77V46H104.41V43.08ZM155.705 24.12C155.705 25.1067 155.599 25.9867 155.385 26.76C155.172 27.5067 154.892 28.1733 154.545 28.76C154.199 29.32 153.799 29.8133 153.345 30.24C152.892 30.64 152.439 30.9733 151.985 31.24C150.919 31.9067 149.692 32.32 148.305 32.48L155.585 46H152.225L144.985 32.48H132.105V29.56H147.785C148.212 29.56 148.705 29.4667 149.265 29.28C149.852 29.0667 150.399 28.7467 150.905 28.32C151.439 27.8933 151.879 27.3333 152.225 26.64C152.599 25.9467 152.785 25.12 152.785 24.16C152.785 23.1733 152.625 22.3467 152.305 21.68C151.985 21.0133 151.585 20.48 151.105 20.08C150.625 19.6533 150.092 19.3467 149.505 19.16C148.919 18.9733 148.345 18.88 147.785 18.88H132.105V15.96H148.305C149.692 16.0133 150.919 16.3333 151.985 16.92C152.439 17.16 152.892 17.48 153.345 17.88C153.799 18.28 154.199 18.7733 154.545 19.36C154.892 19.92 155.172 20.6 155.385 21.4C155.599 22.1733 155.705 23.08 155.705 24.12ZM188.959 15.96L174.479 46.04L160.039 15.96H163.279L174.479 38.84L185.719 15.96H188.959ZM194.137 15.96H197.097V46H194.137V15.96Z" fill="#E7C400"/>
<path d="M207.266 46V15.96H220.946V18.88H210.226V46H207.266ZM227.105 29.56H243.745V32.48H227.105V29.56ZM227.105 15.96H246.465V18.88H227.105V15.96ZM227.105 43.08H246.465V46H227.105V43.08ZM267.081 46C262.974 46 259.427 44.5467 256.441 41.64C253.534 38.6533 252.081 35.1067 252.081 31C252.081 26.8667 253.534 23.3067 256.441 20.32C259.427 17.4133 262.974 15.96 267.081 15.96C270.841 15.96 274.147 17.2 277.001 19.68C276.867 19.8133 276.681 20 276.441 20.24C276.201 20.48 275.974 20.72 275.761 20.96C275.547 21.2 275.347 21.4133 275.161 21.6C275.001 21.76 274.921 21.84 274.921 21.84C273.801 20.9067 272.587 20.1867 271.281 19.68C270.001 19.1467 268.601 18.88 267.081 18.88C265.401 18.88 263.867 19.1867 262.481 19.8C261.094 20.3867 259.801 21.28 258.601 22.48C256.227 24.9067 255.041 27.7467 255.041 31C255.041 34.2267 256.227 37.0533 258.601 39.48C261.054 41.88 263.881 43.08 267.081 43.08C269.907 43.08 272.401 42.16 274.561 40.32C275.014 40.72 275.414 41.08 275.761 41.4C276.054 41.6933 276.321 41.96 276.561 42.2C276.801 42.4133 276.921 42.5067 276.921 42.48C274.041 44.8267 270.761 46 267.081 46ZM303.874 46V32.48H288.034V46H285.074V29.56H303.874V15.96H306.834V46H303.874Z" fill="white"/>
</svg>
