<svg width="242" height="34" viewBox="0 0 242 34" fill="none" xmlns="http://www.w3.org/2000/svg">
<path d="M14.8078 31C13.4478 31 12.1411 30.8 10.8878 30.4C9.63448 30 8.35448 29.3333 7.04781 28.4L9.12781 26.28C10.1411 26.9467 11.1278 27.4133 12.0878 27.68C13.0745 27.9467 14.0478 28.08 15.0078 28.08C15.7545 28.08 16.5145 27.9467 17.2878 27.68C18.0611 27.3867 18.7545 26.9867 19.3678 26.48C19.9811 25.9467 20.4878 25.3067 20.8878 24.56C21.2878 23.7867 21.4878 22.92 21.4878 21.96C21.4878 20.7867 21.1278 19.9067 20.4078 19.32C19.6878 18.7067 18.7811 18.2267 17.6878 17.88C16.5945 17.5067 15.4078 17.1733 14.1278 16.88C12.8745 16.5867 11.7011 16.16 10.6078 15.6C9.51448 15.0133 8.60781 14.2133 7.88781 13.2C7.16781 12.16 6.80781 10.7467 6.80781 8.96C6.80781 7.57333 7.08781 6.38666 7.64781 5.4C8.23448 4.38667 8.98115 3.56 9.88781 2.92C10.7945 2.25333 11.8211 1.76 12.9678 1.44C14.1145 1.12 15.2745 0.959998 16.4478 0.959998C17.7545 0.959998 19.0345 1.16 20.2878 1.56C21.5678 1.93333 22.8745 2.58666 24.2078 3.52L22.0878 5.64C21.1278 4.97333 20.1545 4.52 19.1678 4.28C18.2078 4.01333 17.2345 3.88 16.2478 3.88C15.4745 3.88 14.7011 3.97333 13.9278 4.16C13.1811 4.32 12.4878 4.6 11.8478 5C11.2345 5.37333 10.7278 5.89333 10.3278 6.56C9.95448 7.2 9.76781 8 9.76781 8.96C9.76781 10.1333 10.1278 11.04 10.8478 11.68C11.5678 12.2933 12.4745 12.8 13.5678 13.2C14.6611 13.6 15.8345 13.96 17.0878 14.28C18.3678 14.6 19.5545 15.0533 20.6478 15.64C21.7411 16.2 22.6478 16.9733 23.3678 17.96C24.0878 18.92 24.4478 20.2533 24.4478 21.96C24.4478 23.4 24.2078 24.68 23.7278 25.8C23.2478 26.92 22.5811 27.8667 21.7278 28.64C20.8745 29.4133 19.8478 30 18.6478 30.4C17.4745 30.8 16.1945 31 14.8078 31ZM31.41 14.56H48.05V17.48H31.41V14.56ZM31.41 0.959998H50.77V3.88H31.41V0.959998ZM31.41 28.08H50.77V31H31.41V28.08ZM82.7053 9.12C82.7053 10.1067 82.5986 10.9867 82.3853 11.76C82.172 12.5067 81.892 13.1733 81.5453 13.76C81.1986 14.32 80.7986 14.8133 80.3453 15.24C79.892 15.64 79.4386 15.9733 78.9853 16.24C77.9186 16.9067 76.692 17.32 75.3053 17.48L82.5853 31H79.2253L71.9853 17.48H59.1053V14.56H74.7853C75.212 14.56 75.7053 14.4667 76.2653 14.28C76.852 14.0667 77.3986 13.7467 77.9053 13.32C78.4386 12.8933 78.8786 12.3333 79.2253 11.64C79.5986 10.9467 79.7853 10.12 79.7853 9.16C79.7853 8.17333 79.6253 7.34667 79.3053 6.68C78.9853 6.01333 78.5853 5.48 78.1053 5.08C77.6253 4.65333 77.092 4.34667 76.5053 4.16C75.9186 3.97333 75.3453 3.88 74.7853 3.88H59.1053V0.959998H75.3053C76.692 1.01333 77.9186 1.33333 78.9853 1.92C79.4386 2.16 79.892 2.48 80.3453 2.88C80.7986 3.28 81.1986 3.77333 81.5453 4.36C81.892 4.92 82.172 5.6 82.3853 6.4C82.5986 7.17333 82.7053 8.08 82.7053 9.12ZM115.959 0.959998L101.479 31.04L87.0391 0.959998H90.2791L101.479 23.84L112.719 0.959998H115.959ZM121.137 0.959998H124.097V31H121.137V0.959998Z" fill="#E7C400"/>
<path d="M134.266 31V0.959998H147.946V3.88H137.226V31H134.266ZM154.105 14.56H170.745V17.48H154.105V14.56ZM154.105 0.959998H173.465V3.88H154.105V0.959998ZM154.105 28.08H173.465V31H154.105V28.08ZM194.081 31C189.974 31 186.427 29.5467 183.441 26.64C180.534 23.6533 179.081 20.1067 179.081 16C179.081 11.8667 180.534 8.30667 183.441 5.32C186.427 2.41333 189.974 0.959998 194.081 0.959998C197.841 0.959998 201.147 2.2 204.001 4.68C203.867 4.81333 203.681 5 203.441 5.24C203.201 5.48 202.974 5.72 202.761 5.96C202.547 6.2 202.347 6.41333 202.161 6.6C202.001 6.76 201.921 6.84 201.921 6.84C200.801 5.90666 199.587 5.18666 198.281 4.68C197.001 4.14667 195.601 3.88 194.081 3.88C192.401 3.88 190.867 4.18667 189.481 4.8C188.094 5.38667 186.801 6.28 185.601 7.48C183.227 9.90667 182.041 12.7467 182.041 16C182.041 19.2267 183.227 22.0533 185.601 24.48C188.054 26.88 190.881 28.08 194.081 28.08C196.907 28.08 199.401 27.16 201.561 25.32C202.014 25.72 202.414 26.08 202.761 26.4C203.054 26.6933 203.321 26.96 203.561 27.2C203.801 27.4133 203.921 27.5067 203.921 27.48C201.041 29.8267 197.761 31 194.081 31ZM230.874 31V17.48H215.034V31H212.074V14.56H230.874V0.959998H233.834V31H230.874Z" fill="white"/>
</svg>
